<svg width="26" height="27" viewBox="0 0 26 27" fill="none" xmlns="http://www.w3.org/2000/svg">
<path d="M0.840175 25.8813C1.32462 26.3625 1.98158 26.6328 2.66659 26.6328C3.3516 26.6328 4.00856 26.3625 4.49301 25.8813L12.9999 17.4293L21.5068 25.8813C21.9941 26.3488 22.6466 26.6075 23.324 26.6017C24.0013 26.5958 24.6492 26.3259 25.1282 25.85C25.6072 25.3741 25.8789 24.7304 25.8847 24.0574C25.8906 23.3845 25.6302 22.7361 25.1597 22.252L16.6528 13.8L25.1597 5.34796C25.4064 5.11119 25.6032 4.82797 25.7386 4.51483C25.874 4.20169 25.9453 3.86489 25.9482 3.52409C25.9512 3.18329 25.8859 2.84531 25.756 2.52988C25.6261 2.21444 25.4342 1.92787 25.1917 1.68688C24.9491 1.44589 24.6607 1.2553 24.3432 1.12625C24.0257 0.997196 23.6856 0.932255 23.3426 0.935217C22.9995 0.938178 22.6606 1.00898 22.3454 1.1435C22.0302 1.27802 21.7451 1.47355 21.5068 1.71869L12.9999 10.1707L4.49301 1.71869C4.2547 1.47355 3.96965 1.27802 3.65447 1.1435C3.33929 1.00898 3.00031 0.938178 2.65729 0.935217C2.31428 0.932255 1.97411 0.997196 1.65663 1.12625C1.33914 1.2553 1.05071 1.44589 0.808154 1.68688C0.565598 1.92787 0.373777 2.21444 0.243885 2.52988C0.113993 2.84531 0.0486305 3.18329 0.0516112 3.52409C0.0545919 3.86489 0.125856 4.20169 0.261246 4.51483C0.396636 4.82797 0.593441 5.11119 0.840175 5.34796L9.34709 13.8L0.840175 22.252C0.355875 22.7333 0.08381 23.3861 0.08381 24.0667C0.08381 24.7472 0.355875 25.4 0.840175 25.8813Z" fill="#F0454B"/>
</svg>
