<svg width="36" height="39" viewBox="0 0 36 39" fill="none" xmlns="http://www.w3.org/2000/svg">
<path d="M35.035 23.8094V5.66047C35.0334 4.19641 34.4615 2.79278 33.4448 1.75751C32.428 0.722238 31.0495 0.139877 29.6115 0.138184H6.38849C4.9505 0.139794 3.57186 0.722119 2.55504 1.7574C1.53821 2.79268 0.966233 4.19636 0.9646 5.6605V23.8094C0.966238 25.2735 1.53822 26.6772 2.55505 27.7125C3.57188 28.7477 4.95052 29.3301 6.38851 29.3317H16.3574L25.1052 38.3705C25.2267 38.4962 25.3835 38.5805 25.554 38.6119C25.7244 38.6433 25.9003 38.6203 26.0574 38.546C26.2145 38.4716 26.3452 38.3497 26.4316 38.1968C26.518 38.0439 26.5558 37.8675 26.5399 37.6919L25.7856 29.3317H29.6115C31.0495 29.33 32.428 28.7476 33.4448 27.7123C34.4615 26.6771 35.0334 25.2734 35.035 23.8094ZM24.8648 27.6211C24.748 27.6211 24.6325 27.6459 24.5256 27.6939C24.4188 27.7419 24.3229 27.812 24.2442 27.8999C24.1655 27.9878 24.1057 28.0914 24.0685 28.2041C24.0314 28.3169 24.0178 28.4363 24.0285 28.5547L24.6519 35.4652L17.3073 27.8761C17.2291 27.7953 17.1359 27.7312 17.0332 27.6875C16.9305 27.6437 16.8202 27.6212 16.7089 27.6211H6.38851C5.39594 27.62 4.44433 27.2181 3.74246 26.5035C3.04058 25.7889 2.64576 24.82 2.6446 23.8094V5.66047C2.64576 4.64986 3.04059 3.68098 3.74247 2.96639C4.44434 2.2518 5.39594 1.84985 6.38851 1.84873H29.6116C30.6041 1.84987 31.5556 2.25184 32.2575 2.96644C32.9593 3.68104 33.354 4.64992 33.3551 5.6605V23.8094C33.354 24.82 32.9593 25.7888 32.2575 26.5034C31.5556 27.218 30.6041 27.62 29.6116 27.6211L24.8648 27.6211Z" fill="#F0454B"/>
</svg>
