<svg viewBox="0 0 121 120" fill="none" xmlns="http://www.w3.org/2000/svg">
<path d="M4.213 116.37C6.45552 118.607 9.49662 119.864 12.6675 119.864C15.8385 119.864 18.8796 118.607 21.1221 116.37L60.5009 77.0738L99.8797 116.37C102.135 118.544 105.156 119.747 108.291 119.72C111.427 119.692 114.426 118.437 116.643 116.225C118.86 114.012 120.118 111.019 120.145 107.89C120.172 104.762 118.967 101.747 116.789 99.4965L77.41 60.2001L116.789 20.9036C117.931 19.8028 118.842 18.486 119.469 17.0301C120.095 15.5742 120.425 14.0083 120.439 12.4238C120.453 10.8393 120.15 9.2679 119.549 7.80134C118.948 6.33477 118.06 5.00239 116.937 3.88194C115.814 2.76149 114.479 1.8754 113.009 1.27538C111.54 0.675362 109.965 0.373431 108.377 0.3872C106.789 0.400969 105.22 0.730165 103.761 1.35558C102.302 1.98099 100.983 2.8901 99.8797 4.02986L60.5009 43.3263L21.1221 4.02986C20.019 2.8901 18.6994 1.98099 17.2405 1.35558C15.7815 0.730165 14.2123 0.400969 12.6245 0.3872C11.0367 0.373431 9.46201 0.675362 7.99238 1.27538C6.52274 1.8754 5.18757 2.76149 4.06477 3.88194C2.94197 5.00239 2.05402 6.33477 1.45275 7.80134C0.851473 9.2679 0.54891 10.8393 0.562707 12.4238C0.576505 14.0083 0.906391 15.5742 1.53312 17.0301C2.15984 18.486 3.07085 19.8028 4.213 20.9036L43.5918 60.2001L4.213 99.4965C1.97116 101.734 0.711757 104.769 0.711757 107.933C0.711757 111.098 1.97116 114.132 4.213 116.37Z" fill="white"/>
</svg>
