<svg xmlns="http://www.w3.org/2000/svg" width="100%" height="100%" viewBox="0 0 47.5 47.5" xmlns:v="https://vecta.io/nano"><defs><clipPath id="A"><path d="M0 38h38V0H0v38z"/></clipPath></defs><g clip-path="url(#A)" transform="matrix(1.25 0 0 -1.25 0 47.5)" class="background"><path d="M5 37a4 4 0 0 1-4-4V5a4 4 0 0 1 4-4h28a4 4 0 0 1 4 4v28a4 4 0 0 1-4 4H5z"/><path d="M30 28.5c.64 0 1.287-.237 1.775-.725a2.52 2.52 0 0 0 0-3.55l-15.5-15.5A2.5 2.5 0 0 0 14.5 8a2.5 2.5 0 0 0-1.775.725l-6.5 6.5a2.52 2.52 0 0 0 0 3.55 2.52 2.52 0 0 0 3.55 0l4.725-4.75 13.725 13.75c.488.488 1.135.725 1.775.725z" class="foreground"/></g></svg>