<svg width="37" height="37" viewBox="0 0 37 37" fill="none" xmlns="http://www.w3.org/2000/svg">
<path d="M18.5001 12.7576C19.5085 12.7576 20.3259 11.9402 20.3259 10.9318C20.3259 9.92345 19.5085 9.10602 18.5001 9.10602C17.4917 9.10602 16.6743 9.92345 16.6743 10.9318C16.6743 11.9402 17.4917 12.7576 18.5001 12.7576Z" fill="#39B54A"/>
<path d="M18.5 1.84974C27.6805 1.84974 35.1497 9.319 35.1497 18.4995C35.1497 27.68 27.6805 35.1492 18.5 35.1492C9.31952 35.1492 1.84974 27.6805 1.84974 18.4995C1.84974 9.31848 9.319 1.84974 18.5 1.84974ZM18.5 0C8.28269 0 0 8.28269 0 18.5C0 28.7173 8.28269 37 18.5 37C28.7173 37 37 28.7173 37 18.5C37 8.28269 28.7168 0 18.5 0Z" fill="#39B54A"/>
<path d="M19.7948 15.2473H17.2051V27.8934H19.7948V15.2473Z" fill="#39B54A"/>
</svg>
