<svg width="44" height="55" viewBox="0 0 44 55" fill="none" xmlns="http://www.w3.org/2000/svg">
<path d="M22.0001 9.68L36.1241 34.1H7.8761L22.0001 9.68ZM22.0001 7.04C21.0761 7.04 20.1961 7.524 19.7121 8.36L5.5881 32.78C5.1041 33.616 5.1041 34.584 5.5881 35.42C6.0721 36.256 6.9521 36.74 7.8761 36.74H36.0801C37.0041 36.74 37.8841 36.256 38.3681 35.42C38.8521 34.584 38.8521 33.616 38.3681 32.78L24.2881 8.36C23.8041 7.524 22.9241 7.04 22.0001 7.04Z" fill="#F0454B"/>
<path d="M21.9999 26.488C21.2519 26.488 20.6799 25.916 20.6799 25.168V17.82C20.6799 17.072 21.2519 16.5 21.9999 16.5C22.7479 16.5 23.3199 17.072 23.3199 17.82V25.168C23.3199 25.872 22.7479 26.488 21.9999 26.488Z" fill="#F0454B"/>
<path d="M21.9999 31.328C22.7289 31.328 23.3199 30.737 23.3199 30.008C23.3199 29.279 22.7289 28.688 21.9999 28.688C21.2709 28.688 20.6799 29.279 20.6799 30.008C20.6799 30.737 21.2709 31.328 21.9999 31.328Z" fill="#F0454B"/>
</svg>
