<svg xmlns="http://www.w3.org/2000/svg" viewBox="0 0 143 113" fill="none"><path d="M123.74.008a18.7 18.7 0 0 0-12.855 5.609L48.363 68.14 31.65 53.415a18.7 18.7 0 0 0-13.783-5.192 18.7 18.7 0 0 0-13.267 6.396 18.7 18.7 0 0 0-3.699 6.545 18.7 18.7 0 0 0-.822 7.472 18.7 18.7 0 0 0 7.03 12.943l29.917 26.178c3.563 3.1 8.172 4.755 12.9 4.604s9.22-2.1 12.577-5.422l74.792-74.793c2.713-2.622 4.57-6.004 5.325-9.7a18.7 18.7 0 0 0-1.091-11.013c-1.467-3.477-3.95-6.428-7.126-8.467A18.7 18.7 0 0 0 123.74.008z" fill="#fff"/></svg>