<svg width="34" height="34" viewBox="0 0 34 34" fill="none" xmlns="http://www.w3.org/2000/svg">
<path fill-rule="evenodd" clip-rule="evenodd" d="M17.0001 18.6451C16.0915 18.6451 15.355 17.97 15.355 17.1371L15.355 8.08869C15.355 7.25581 16.0915 6.58063 17.0001 6.58062C17.9087 6.58062 18.6453 7.25581 18.6453 8.08869L18.6453 17.1371C18.6453 17.97 17.9087 18.6451 17.0001 18.6451Z" fill="#666666"/>
<path fill-rule="evenodd" clip-rule="evenodd" d="M18.645 18.0968C18.645 19.0053 17.9989 19.7419 17.2019 19.7419L9.1204 19.7419C8.32339 19.7419 7.67728 19.0053 7.67728 18.0968C7.67728 17.1882 8.32339 16.4516 9.1204 16.4516L17.2019 16.4516C17.9989 16.4516 18.645 17.1882 18.645 18.0968Z" fill="#666666"/>
<path fill-rule="evenodd" clip-rule="evenodd" d="M17 31.0175C24.7417 31.0175 31.0175 24.7417 31.0175 17C31.0175 9.25832 24.7417 2.98246 17 2.98246C9.25832 2.98246 2.98246 9.25832 2.98246 17C2.98246 24.7417 9.25832 31.0175 17 31.0175ZM17 34C26.3888 34 34 26.3888 34 17C34 7.61116 26.3888 0 17 0C7.61116 0 0 7.61116 0 17C0 26.3888 7.61116 34 17 34Z" fill="#666666"/>
</svg>
