<?xml version="1.0" encoding="utf-8"?>
<!-- Generator: Adobe Illustrator 23.0.6, SVG Export Plug-In . SVG Version: 6.00 Build 0)  -->
<svg version="1.1"
	 id="Layer_1" xmlns:cc="http://creativecommons.org/ns#" xmlns:dc="http://purl.org/dc/elements/1.1/" xmlns:inkscape="http://www.inkscape.org/namespaces/inkscape" xmlns:rdf="http://www.w3.org/1999/02/22-rdf-syntax-ns#" xmlns:sodipodi="http://sodipodi.sourceforge.net/DTD/sodipodi-0.dtd" xmlns:svg="http://www.w3.org/2000/svg"
	 xmlns="http://www.w3.org/2000/svg" xmlns:xlink="http://www.w3.org/1999/xlink" x="0px" y="0px" viewBox="0 0 64 80"
	 style="enable-background:new 0 0 64 80;" xml:space="preserve">
<style type="text/css">
	.st0{fill:#008A29;}
</style>
<g>
	<path class="st0" d="M13.4,16.1c-1.2,0-2.3,0.7-3,1.6s-1.1,2.2-1.1,3.5v21.7c0,1.2,0.2,2.3,0.9,3.1c0.7,0.8,1.6,1.4,2.9,1.9
		c0,0,0,0,0.1,0c0,0,3.1,1,7,2.1S28.6,52,32,52c3.4,0,8-1,11.9-2.1s7-2.1,7-2.1c0,0,0,0,0.1,0c1.2-0.5,2.2-1,2.8-1.9
		c0.7-0.8,0.9-1.9,0.9-3.1V21.1c0-1.3-0.4-2.6-1.1-3.5c-0.7-1-1.8-1.6-3.1-1.5c0,0,0,0,0,0c0,0-12.5,1.4-18.5,1.4
		c-6.1,0-18.5-1.4-18.5-1.4C13.4,16.1,13.4,16.1,13.4,16.1L13.4,16.1z M50.7,18c0.5,0,0.9,0.2,1.3,0.7c0.4,0.6,0.7,1.4,0.7,2.3v21.7
		c0,1-0.2,1.5-0.5,1.9c-0.3,0.4-0.9,0.8-2,1.2c0,0-3,1-6.9,2c-3.8,1-8.5,2-11.4,2c-2.9,0-7.6-1-11.4-2c-3.8-1-6.8-2-6.9-2
		c-1.1-0.4-1.7-0.8-2-1.2c-0.3-0.4-0.5-0.9-0.5-1.9V21.1c0-0.9,0.3-1.7,0.7-2.3c0.4-0.5,0.9-0.8,1.4-0.8c0.2,0,12.3,1.4,18.7,1.4
		C38.4,19.4,50.7,18.1,50.7,18z"/>
	<path class="st0" d="M16.4,24.2c-0.5,0-0.9,0.4-1,0.9c-0.1,0.5,0.3,1.1,0.9,1.1c0,0,0,0,0,0c0,0,10.3,1.4,15.7,1.4
		c5.4,0,15.7-1.4,15.7-1.4c0.5-0.1,0.9-0.6,0.9-1.1c0,0,0,0,0,0c-0.1-0.5-0.6-0.9-1.1-0.9c0,0,0,0,0,0c0,0-10.4,1.4-15.4,1.4
		c-5,0-15.4-1.4-15.4-1.4C16.5,24.2,16.5,24.2,16.4,24.2L16.4,24.2z"/>
	<path class="st0" d="M16.4,31c-0.5,0-0.9,0.4-1,0.9c-0.1,0.5,0.3,1.1,0.9,1.1c0,0,0,0,0,0c0,0,10.3,1.4,15.7,1.4
		c5.4,0,15.7-1.4,15.7-1.4c0.5-0.1,0.9-0.6,0.9-1.1c0,0,0,0,0,0c-0.1-0.5-0.6-0.9-1.1-0.9c0,0,0,0,0,0c0,0-10.4,1.4-15.4,1.4
		c-5,0-15.4-1.4-15.4-1.4C16.5,31,16.5,31,16.4,31z"/>
	<path class="st0" d="M16.5,37.8c-0.5,0-0.9,0.3-1,0.7c-0.1,0.5,0.2,1.1,0.7,1.2c0,0,0,0,0,0c0,0,2.6,0.7,5.9,1.4s7.2,1.4,9.9,1.4
		c2.8,0,6.7-0.7,9.9-1.4s5.9-1.4,5.9-1.4c0.5-0.1,0.9-0.7,0.7-1.2c0,0,0,0,0,0c-0.1-0.5-0.7-0.9-1.2-0.7c0,0,0,0,0,0
		c0,0-2.6,0.7-5.8,1.3c-3.2,0.7-7.1,1.3-9.5,1.3c-2.4,0-6.3-0.7-9.5-1.3s-5.8-1.3-5.8-1.3C16.6,37.8,16.6,37.8,16.5,37.8z"/>
	<path class="st0" d="M10.3,20.1c-2.4,0-4.5,1.5-6,3.6S2,28.8,2,32s0.9,6.1,2.3,8.2s3.6,3.6,6,3.6c0.6,0,0-0.4,0-1c0-0.6,0.6-1,0-1
		c-1.6,0-3.1-1-4.3-2.7S4,34.8,4,32s0.8-5.4,2-7.1s2.7-2.7,4.3-2.7c0.6,0,0-0.4,0-1C10.3,20.6,10.8,20.1,10.3,20.1z"/>
	<path class="st0" d="M53.8,20.1c-0.6,0,0,0.4,0,1c0,0.6-0.6,1,0,1c1.6,0,3.1,1,4.3,2.7c1.2,1.8,2,4.3,2,7.1s-0.8,5.4-2,7.1
		c-1.2,1.8-2.7,2.7-4.3,2.7c-0.6,0,0,0.4,0,1c0,0.6-0.6,1,0,1c2.4,0,4.5-1.5,6-3.6S62,35.2,62,32s-0.9-6.1-2.3-8.2
		S56.2,20.1,53.8,20.1z"/>
</g>
</svg>
