<svg width="34" height="33" viewBox="0 0 34 33" fill="none" xmlns="http://www.w3.org/2000/svg">
<path d="M8.88113 0C8.47287 0 8.142 0.330909 8.142 0.73913V5.27785C6.87336 5.61008 5.92461 6.76252 5.92461 8.13043C5.92461 9.75449 7.25704 11.087 8.88113 11.087C10.5052 11.087 11.8377 9.75449 11.8377 8.13043C11.8377 6.76252 10.8889 5.61008 9.62026 5.27785V0.73913C9.62026 0.330909 9.28935 0 8.88113 0ZM25.142 0C24.7337 0 24.4029 0.330909 24.4029 0.73913V5.27785C23.1342 5.61008 22.1855 6.76252 22.1855 8.13043C22.1855 9.75449 23.5179 11.087 25.142 11.087C26.7661 11.087 28.0985 9.75449 28.0985 8.13043C28.0985 6.76252 27.1497 5.61008 25.8811 5.27785V0.73913C25.8811 0.330909 25.5502 0 25.142 0ZM3.70722 2.21739C1.66681 2.21739 0 3.88419 0 5.92459V28.8145C0 30.8549 1.66681 32.5217 3.70722 32.5217H30.2928C32.3332 32.5217 34 30.8549 34 28.8145V5.92459C34 3.88419 32.3332 2.21739 30.2928 2.21739H28.087C27.6965 2.21185 27.3363 2.566 27.3363 2.95652C27.3363 3.34704 27.6965 3.70116 28.087 3.69565H30.2928C31.5384 3.69565 32.5217 4.67897 32.5217 5.92459V12.5652H1.47826V5.92459C1.47826 4.67897 2.46156 3.69565 3.70722 3.69565H5.91304C6.30353 3.7012 6.66374 3.34704 6.66374 2.95652C6.66374 2.566 6.30353 2.21188 5.91304 2.21739H3.70722ZM11.8261 2.21739C11.4179 2.21739 11.087 2.5483 11.087 2.95652C11.087 3.36474 11.4179 3.69565 11.8261 3.69565H22.1739C22.5821 3.69565 22.913 3.36474 22.913 2.95652C22.913 2.5483 22.5821 2.21739 22.1739 2.21739H11.8261ZM8.88113 6.65217C9.7063 6.65217 10.3594 7.30523 10.3594 8.13043C10.3594 8.9556 9.7063 9.6087 8.88113 9.6087C8.05597 9.6087 7.40287 8.9556 7.40287 8.13043C7.40287 7.30523 8.05597 6.65217 8.88113 6.65217ZM25.142 6.65217C25.9672 6.65217 26.6203 7.30523 26.6203 8.13043C26.6203 8.9556 25.9672 9.6087 25.142 9.6087C24.3168 9.6087 23.6637 8.9556 23.6637 8.13043C23.6637 7.30523 24.3168 6.65217 25.142 6.65217ZM1.47826 14.0435H32.5217V28.8145C32.5217 30.0602 31.5384 31.0435 30.2928 31.0435H3.70722C2.46156 31.0435 1.47826 30.0602 1.47826 28.8145V14.0435Z" fill="#39B54A"/>
</svg>
