<svg width="30" height="23" viewBox="0 0 30 23" fill="none" xmlns="http://www.w3.org/2000/svg">
<path d="M25.3272 0.00171596C24.3344 0.0285716 23.3909 0.440276 22.696 1.14986L9.89895 13.9469L6.47843 10.933C6.10463 10.5741 5.66185 10.2948 5.17692 10.1122C4.69199 9.92946 4.17502 9.84715 3.65734 9.8702C3.13965 9.89324 2.63203 10.0212 2.16526 10.2462C1.69848 10.4713 1.28226 10.7887 0.941828 11.1794C0.601397 11.5701 0.343845 12.0259 0.184781 12.5191C0.0257163 13.0123 -0.031547 13.5326 0.0164622 14.0485C0.0644715 14.5645 0.216753 15.0654 0.464077 15.5207C0.711401 15.9761 1.04862 16.3765 1.45528 16.6977L7.57874 22.0557C8.30797 22.6924 9.25137 23.0291 10.2189 22.998C11.1865 22.9669 12.1064 22.5704 12.7932 21.8882L28.1019 6.5796C28.6572 6.04284 29.0371 5.35066 29.1918 4.59398C29.3464 3.8373 29.2686 3.05152 28.9684 2.33992C28.6682 1.62832 28.1598 1.02417 27.5099 0.606857C26.8601 0.189542 26.0992 -0.0214029 25.3272 0.00171596Z" fill="#39B54A"/>
</svg>
