<?xml version="1.0" encoding="utf-8"?>
<!-- Generator: Adobe Illustrator 23.0.6, SVG Export Plug-In . SVG Version: 6.00 Build 0)  -->
<svg version="1.1" id="Layer_1" xmlns="http://www.w3.org/2000/svg" xmlns:xlink="http://www.w3.org/1999/xlink" x="0px" y="0px"
	 viewBox="0 0 59 85" style="enable-background:new 0 0 59 85;" xml:space="preserve">
<style type="text/css">
	.st0{fill:none;stroke:#EB0008;stroke-width:2;stroke-miterlimit:10;}
</style>
<path class="st0" d="M18.8,71V58c0-0.6-0.4-1-1-1h-2c-0.6,0-1,0.4-1,1v13c0,1.1-0.9,2-2,2h-4c-1.1,0-2-0.9-2-2V54h-2
	c-1.1,0-2-0.9-2-2V35c0-4.4,3.6-8,8-8h12c4.4,0,8,3.6,8,8v17c0,1.1-0.9,2-2,2h-2v17c0,1.1-0.9,2-2,2h-4C19.7,73,18.8,72.1,18.8,71z
	 M16.8,23c-5,0-9-4-9-9s4-9,9-9s9,4,9,9S21.8,23,16.8,23z"/>
<path class="st0" d="M47.6,71.5v-9.7c0-0.4-0.3-0.7-0.7-0.7h-1.5c-0.4,0-0.7,0.3-0.7,0.7v9.7c0,0.8-0.7,1.5-1.5,1.5h-3
	c-0.8,0-1.5-0.7-1.5-1.5V58.9h-1.5c-0.8,0-1.5-0.7-1.5-1.5V44.7c0-3.3,2.7-6,6-6h9c3.3,0,6,2.7,6,6v12.7c0,0.8-0.7,1.5-1.5,1.5h-1.5
	v12.7c0,0.8-0.7,1.5-1.5,1.5h-3C48.2,73,47.6,72.4,47.6,71.5z M46.1,35.7c-3.7,0-6.7-3-6.7-6.7s3-6.7,6.7-6.7c3.7,0,6.7,3,6.7,6.7
	S49.8,35.7,46.1,35.7z"/>
</svg>
