<svg id="Layer_1" data-name="Layer 1" xmlns="http://www.w3.org/2000/svg" viewBox="0 0 52 52"><defs><style>.cls-1,.cls-2,.cls-3{fill:none;stroke:#0369ac;}.cls-1{stroke-width:3px;}.cls-2{stroke-width:2px;}.cls-3{stroke-dasharray:2 2;}.cls-4{fill:#0369ac;}</style></defs><circle class="cls-1" cx="26" cy="26" r="12"/><circle class="cls-2" cx="26" cy="26" r="19"/><circle class="cls-3" cx="26" cy="26" r="25.5"/><path class="cls-4" d="M45.13,45.2A5.23,5.23,0,0,1,41.79,44a5.37,5.37,0,0,1,1.33-9.05,5.17,5.17,0,0,1,3.53-.17,5.26,5.26,0,0,1,2.85,2.14,5.4,5.4,0,0,1-.65,6.73,5.29,5.29,0,0,1-3.72,1.56Zm0-9a3.54,3.54,0,0,0-2,.62,3.72,3.72,0,0,0-1.35,1.66,3.77,3.77,0,0,0-.2,2.13,3.7,3.7,0,0,0,1,1.89,3.6,3.6,0,0,0,4,.8,3.72,3.72,0,0,0,1.63-1.36,3.76,3.76,0,0,0,.61-2.06,3.72,3.72,0,0,0-1.07-2.6A3.62,3.62,0,0,0,45.13,36.18Zm7.24,16.36a.82.82,0,0,1-.57-.24.84.84,0,0,1-.24-.58,6.48,6.48,0,0,0-.49-2.5,6.35,6.35,0,0,0-1.39-2.11,6.36,6.36,0,0,0-9.1,0,6.54,6.54,0,0,0-1.4,2.11,6.67,6.67,0,0,0-.49,2.5.83.83,0,0,1-.23.58.82.82,0,0,1-.57.24.84.84,0,0,1-.58-.24.83.83,0,0,1-.23-.58,8.23,8.23,0,0,1,1.82-5.17,8.07,8.07,0,0,1,4.63-2.83,8,8,0,0,1,5.36.78,8.14,8.14,0,0,1,3.66,4,8.27,8.27,0,0,1,.63,3.18.81.81,0,0,1-.06.31,1,1,0,0,1-.17.27,1,1,0,0,1-.27.18A.81.81,0,0,1,52.37,52.54Z" transform="translate(-19.08 -15.54)"/></svg>