<svg id="Layer_1" data-name="Layer 1" xmlns="http://www.w3.org/2000/svg" viewBox="0 0 19.26 64.03"><defs><style>.cls-1{fill:none;stroke:#1080a6;stroke-linecap:round;stroke-miterlimit:10;stroke-width:2px;}</style></defs><path class="cls-1" d="M690.09,369.81H676.2a1.75,1.75,0,0,0,0,3.5h2.29V410.4a4.72,4.72,0,1,0,9.44,0V373.31h2a1.79,1.79,0,0,0,1.76-1.75A1.68,1.68,0,0,0,690.09,369.81Z" transform="translate(-673.45 -352.09)"/><path class="cls-1" d="M685.37,355.92c0,1.62-1.89,5.8-1.89,5.8s-1.89-4.32-1.89-5.8.81-2.83,1.89-2.83S685.37,354.3,685.37,355.92Z" transform="translate(-673.45 -352.09)"/><path class="cls-1" d="M685.37,405.27c0-1.61-1.89-5.79-1.89-5.79s-1.89,4.31-1.89,5.79.81,2.84,1.89,2.84S685.37,406.89,685.37,405.27Z" transform="translate(-673.45 -352.09)"/><path class="cls-1" d="M683.48,361.72v38" transform="translate(-673.45 -352.09)"/><path class="cls-1" d="M679.3,375.47h8.09" transform="translate(-673.45 -352.09)"/></svg>