<svg width="35" height="41" viewBox="0 0 35 41" fill="none" xmlns="http://www.w3.org/2000/svg">
<path d="M34.3509 10.6896C34.3099 9.62881 34.3099 8.60881 34.3099 7.62961C34.3099 6.85441 33.6949 6.24241 32.9159 6.24241C26.8889 6.20161 22.2969 4.48801 18.4839 0.816013C17.9509 0.285613 17.0489 0.285613 16.5159 0.816013C12.7029 4.48801 8.11088 6.20161 2.12488 6.20161C1.34588 6.20161 0.730885 6.81361 0.730885 7.58881C0.730885 8.56801 0.730885 9.58801 0.689885 10.6896C0.484885 20.7672 0.197886 34.5168 17.0489 40.3104C17.2129 40.3512 17.3359 40.392 17.4999 40.392C17.6639 40.392 17.8279 40.3512 17.9509 40.3104C34.8019 34.5168 34.5149 20.7672 34.3509 10.6896ZM17.4999 37.4952C3.06788 32.2728 3.27288 20.8488 3.47788 10.7712C3.47788 10.1592 3.51888 9.58801 3.51888 9.01681C9.13588 8.73121 13.6459 7.05841 17.4999 3.71281C21.3539 7.05841 25.8639 8.77201 31.4809 8.97601C31.4809 9.54721 31.4809 10.1184 31.5219 10.7304C31.7269 20.8488 31.9319 32.2728 17.4999 37.4952Z" fill="#39B54A"/>
<path d="M22.3379 15.5448L15.5729 22.2768L12.6619 19.38C12.1289 18.8496 11.2269 18.8496 10.6529 19.38C10.1199 19.9104 10.1199 20.808 10.6529 21.3792L14.5479 25.2552C14.8349 25.5408 15.1629 25.6632 15.5319 25.6632C15.9009 25.6632 16.2699 25.5408 16.5159 25.2552L24.3059 17.5032C24.8389 16.9728 24.8389 16.0752 24.3059 15.504C23.7729 14.9736 22.8709 14.9736 22.3379 15.5448Z" fill="#39B54A"/>
</svg>
