<svg width="35" height="45" viewBox="0 0 35 45" fill="none" xmlns="http://www.w3.org/2000/svg">
<path d="M29.395 5.23145C26.1835 2.01915 21.9106 0.249109 17.3634 0.246399C12.819 0.249109 8.5488 2.01915 5.3373 5.23145C2.1258 8.44236 0.35498 12.7132 0.35498 17.253C0.35498 21.5278 2.98261 27.4007 8.16139 34.7103C10.1587 37.5293 12.1506 39.9959 13.4657 41.5706C14.2133 42.4651 14.83 43.174 15.2161 43.6097C15.4344 43.8583 15.6036 44.0467 15.7059 44.1601C15.7754 44.2366 15.8314 44.3007 15.8887 44.3568L16.0224 44.492C16.3934 44.8157 16.8723 45 17.3648 45H17.3675C17.8669 45 18.3552 44.8101 18.7263 44.4769L18.8437 44.3568C18.9009 44.3007 18.9582 44.2366 19.0237 44.1642L19.5162 43.6111C19.9023 43.174 20.519 42.4652 21.2652 41.5706C22.5818 39.9958 24.5736 37.5293 26.571 34.7103C31.7497 27.4007 34.3774 21.5279 34.3774 17.253C34.3774 12.7132 32.6065 8.44244 29.395 5.23145ZM25.309 33.7393C21.7496 38.7667 18.1369 42.7739 17.7359 43.2137L17.3661 43.6207L16.9964 43.2137C16.5953 42.7739 12.9827 38.7667 9.42334 33.7393C4.53235 26.8257 1.94567 21.125 1.94567 17.2531C1.94567 13.138 3.54867 9.26873 6.46147 6.35694C9.37418 3.44375 13.2474 1.84171 17.3675 1.84171C21.4863 1.84171 25.3582 3.44375 28.2709 6.35694C31.1836 9.26873 32.7867 13.1366 32.7867 17.2531C32.7866 21.125 30.1999 26.8257 25.309 33.7393Z" fill="#39B54A"/>
<path d="M17.3646 9.68524C13.3577 9.68524 10.0957 12.9495 10.0957 16.9635C10.0957 20.9761 13.3577 24.2417 17.3646 24.2417C21.3728 24.2417 24.6362 20.9762 24.6362 16.9635C24.6363 12.9495 21.3729 9.68524 17.3646 9.68524ZM21.3811 20.9843C20.3115 22.0578 18.8844 22.6478 17.3646 22.6478C14.2349 22.6478 11.6865 20.0993 11.6865 16.9635C11.6865 13.8277 14.235 11.2792 17.3646 11.2792C18.8844 11.2792 20.3101 11.8692 21.3825 12.9426C22.4548 14.0161 23.0455 15.4447 23.0455 16.9635C23.0455 18.4836 22.4548 19.9122 21.3811 20.9843Z" fill="#39B54A"/>
</svg>
