<?xml version="1.0" encoding="utf-8"?>
<!-- Generator: Adobe Illustrator 23.0.6, SVG Export Plug-In . SVG Version: 6.00 Build 0)  -->
<svg version="1.1" id="Layer_1" xmlns="http://www.w3.org/2000/svg" xmlns:xlink="http://www.w3.org/1999/xlink" x="0px" y="0px"
	 viewBox="0 0 80 100" style="enable-background:new 0 0 80 100;" xml:space="preserve">
<style type="text/css">
	.st0{fill:#EB0008;}
</style>
<g>
	<path class="st0" d="M75.2,39L60,35.2V25v-2c0-1.7-1.3-3-3-3H7c-1.7,0-3,1.3-3,3v27c0,1.7,1.3,3,3,3h5c0,3.9,3.1,7,7,7s7-3.1,7-7
		h11h13h3c0,3.3,2.7,6,6,6s6-2.7,6-6h9c1.1,0,2-0.9,2-2v-3v-3v-5C76,39.5,75.7,39.1,75.2,39z M55,34.2V26h3v8.8L55,34.2z M19,58
		c-2.8,0-5-2.2-5-5c0-0.3,0-0.6,0.1-0.8c0.4-2.4,2.5-4.2,4.9-4.2s4.5,1.8,4.9,4.2c0,0.3,0.1,0.5,0.1,0.8C24,55.8,21.8,58,19,58z
		 M38,51V26h11v25H38z M59,57c-2.2,0-4-1.8-4-4c0-0.3,0-0.6,0.1-0.8c0.4-1.9,2-3.2,3.9-3.2c0.2,0,0.5,0,0.7,0.1
		c1.6,0.3,2.9,1.5,3.2,3.2C63,52.4,63,52.7,63,53C63,55.2,61.2,57,59,57z M64.7,51c0,0,0-0.1,0-0.1c0-0.1-0.1-0.2-0.2-0.4
		c-0.1-0.2-0.2-0.4-0.3-0.5c-0.1-0.1-0.1-0.2-0.2-0.3c-0.1-0.2-0.2-0.3-0.3-0.5c-0.1-0.1-0.2-0.2-0.3-0.3c-0.1-0.1-0.3-0.3-0.4-0.4
		c-0.1-0.1-0.2-0.2-0.3-0.3c-0.2-0.1-0.3-0.2-0.5-0.3c-0.1-0.1-0.2-0.1-0.3-0.2c-0.2-0.1-0.4-0.2-0.5-0.2c-0.1,0-0.2-0.1-0.4-0.1
		c-0.2-0.1-0.4-0.1-0.6-0.2c-0.1,0-0.2-0.1-0.3-0.1C59.7,47,59.3,47,59,47c-0.3,0-0.7,0-1,0.1c-0.1,0-0.2,0.1-0.3,0.1
		c-0.2,0-0.4,0.1-0.6,0.2c-0.1,0-0.2,0.1-0.4,0.1c-0.2,0.1-0.4,0.2-0.5,0.2c-0.1,0.1-0.2,0.1-0.4,0.2c-0.2,0.1-0.3,0.2-0.4,0.3
		c-0.1,0.1-0.2,0.2-0.3,0.3c-0.1,0.1-0.3,0.2-0.4,0.4c-0.1,0.1-0.2,0.2-0.3,0.3c-0.1,0.1-0.2,0.3-0.3,0.4c-0.1,0.1-0.2,0.3-0.3,0.4
		c-0.1,0.1-0.2,0.3-0.2,0.5c-0.1,0.1-0.1,0.3-0.2,0.4c0,0,0,0.1,0,0.1H51V25c0-0.6-0.4-1-1-1H37c-0.6,0-1,0.4-1,1v26H25.7
		c0,0,0-0.1,0-0.1c-0.1-0.3-0.2-0.6-0.4-0.9c0,0,0-0.1-0.1-0.1c-0.2-0.3-0.3-0.6-0.5-0.9c0,0,0,0,0,0c-0.2-0.3-0.4-0.5-0.7-0.8
		c0,0,0,0-0.1-0.1c-0.2-0.2-0.5-0.4-0.7-0.6c0,0-0.1-0.1-0.1-0.1c-0.3-0.2-0.5-0.4-0.8-0.5c0,0-0.1-0.1-0.1-0.1
		c-0.3-0.1-0.6-0.3-0.9-0.4c0,0-0.1,0-0.1,0c-0.3-0.1-0.6-0.2-1-0.2c0,0-0.1,0-0.1,0C19.7,46,19.4,46,19,46s-0.7,0-1.1,0.1
		c0,0-0.1,0-0.1,0c-0.3,0.1-0.7,0.1-1,0.2c0,0-0.1,0-0.1,0c-0.3,0.1-0.6,0.2-0.9,0.4c0,0-0.1,0-0.1,0.1c-0.3,0.2-0.6,0.3-0.8,0.5
		c0,0-0.1,0-0.1,0.1c-0.3,0.2-0.5,0.4-0.8,0.7c0,0,0,0,0,0c-0.5,0.5-0.9,1.1-1.2,1.8c0,0,0,0,0,0c-0.2,0.3-0.3,0.6-0.4,1
		c0,0,0,0,0,0.1H7c-0.6,0-1-0.4-1-1V23c0-0.6,0.4-1,1-1h50c0.6,0,1,0.4,1,1v1h-4c-0.6,0-1,0.4-1,1v10c0,0.5,0.3,0.9,0.8,1l5,1
		L74,40.8V44h-6c-0.3,0-0.6,0.2-0.8,0.4c-0.2,0.3-0.2,0.6-0.1,0.9l1,3c0.1,0.4,0.5,0.7,0.9,0.7h5v2H64.7z M74,47h-4.3l-0.3-1H74V47z
		"/>
	<path class="st0" d="M33,24h-8h-8H9c-0.6,0-1,0.4-1,1v9c0,0.6,0.4,1,1,1h8h8h8c0.6,0,1-0.4,1-1v-9C34,24.4,33.6,24,33,24z M10,26h6
		v7h-6V26z M18,33v-7h6v7H18z M32,33h-6v-7h6V33z"/>
	<path class="st0" d="M47,27h-7c-0.6,0-1,0.4-1,1v11c0,0.6,0.4,1,1,1h7c0.6,0,1-0.4,1-1V28C48,27.4,47.6,27,47,27z M46,38h-5v-9h5
		V38z"/>
	<path class="st0" d="M33,38H9c-0.6,0-1,0.4-1,1s0.4,1,1,1h24c0.6,0,1-0.4,1-1S33.6,38,33,38z"/>
	<path class="st0" d="M33,42H19c-0.6,0-1,0.4-1,1s0.4,1,1,1h14c0.6,0,1-0.4,1-1S33.6,42,33,42z"/>
</g>
</svg>
